# xmcd CD database file
#
# Track frame offsets:
#	150
#	8660
#	20981
#	30734
#	40362
#	51343
#	67463
#	76223
#	88710
#	103374
#	116265
#	128491
#	143386
#	157872
#	169183
#	180862
#	194821
#	205383
#	217567
#	229741
#
# Disc length: 3290 seconds
#
# Revision: 0
# Processed by: cddbd v1.5.2PL0 Copyright (c) Steve Scherf et al.
# Submitted via: CDex 1.77
#
DISCID=0e0cd814
DTITLE=Ray Charles - The Very Best CD3
DYEAR=2014
DGENRE=Blues
TTITLE0=Alabamy Bound
TTITLE1=Basin Street Blues
TTITLE2=Blue Moon Of Kentucky
TTITLE3=California, Here I Come
TTITLE4=Deed I Do
TTITLE5=Georgia On My Mind
TTITLE6=Hit the Road Jack
TTITLE7=Mary Ann
TTITLE8=Hard Hearted Hannah
TTITLE9=Let the Good Times Roll
TTITLE10=It Had To Be You
TTITLE11=Moon Over Miami
TTITLE12=Cocktails for Two
TTITLE13=Rosetta
TTITLE14=Hallelujah I Love Her So
TTITLE15=One mint julep
TTITLE16=Get On The Right Track Baby
TTITLE17=Tell me how do you feel
TTITLE18=No One To Cry To
TTITLE19=Diane
EXTD=YEAR: 2014
EXTT0=
EXTT1=
EXTT2=
EXTT3=
EXTT4=
EXTT5=
EXTT6=
EXTT7=
EXTT8=
EXTT9=
EXTT10=
EXTT11=
EXTT12=
EXTT13=
EXTT14=
EXTT15=
EXTT16=
EXTT17=
EXTT18=
EXTT19=
PLAYORDER=
